HIERARCHY
ROOT Hips
{
	OFFSET 0.00000 0.00000 0.00000
	CHANNELS 6 Xposition Yposition Zposition Zrotation Yrotation Xrotation 
	JOINT LHipJoint
	{
		OFFSET 0 0 0
		CHANNELS 3 Zrotation Yrotation Xrotation
		JOINT LeftHip
		{
			OFFSET 1.38280 -1.96574 0.54427
			CHANNELS 3 Zrotation Yrotation Xrotation
			JOINT LeftKnee
			{
				OFFSET 2.72096 -7.47578 0.00000
				CHANNELS 3 Zrotation Yrotation Xrotation
				JOINT LeftAnkle
				{
					OFFSET 2.73041 -7.50176 0.00000
					CHANNELS 3 Zrotation Yrotation Xrotation
					JOINT LeftToe
					{
						OFFSET 0.16150 -0.44371 2.18031
						CHANNELS 3 Zrotation Yrotation Xrotation
						End Site
						{
							OFFSET 0.00000 -0.00000 1.12127
						}
					}
				}
			}
		}
	}
	JOINT RHipJoint
	{
		OFFSET 0 0 0
		CHANNELS 3 Zrotation Yrotation Xrotation
		JOINT RightHip
		{
			OFFSET -1.57224 -1.96575 0.54427
			CHANNELS 3 Zrotation Yrotation Xrotation
			JOINT RightKnee
			{
				OFFSET -2.95935 -8.13076 0.00000
				CHANNELS 3 Zrotation Yrotation Xrotation
				JOINT RightAnkle
				{
					OFFSET -2.52345 -6.93311 0.00000
					CHANNELS 3 Zrotation Yrotation Xrotation
					JOINT RightToe
					{
						OFFSET -0.04475 -0.10171 1.86688
						CHANNELS 3 Zrotation Yrotation Xrotation
						End Site
						{
							OFFSET -0.00000 -0.00000 0.95157
						}
					}
				}
			}
		}
	}
	JOINT lowerback
	{
		OFFSET 0 0 0
		CHANNELS 3 Zrotation Yrotation Xrotation
		JOINT Chest
		{
			OFFSET 0.00669 2.07367 0.09104
			CHANNELS 3 Zrotation Yrotation Xrotation
			JOINT Chest2
			{
				OFFSET -0.00664 2.06198 -0.04732
				CHANNELS 3 Zrotation Yrotation Xrotation
				JOINT lowerneck
				{
					OFFSET 0 0 0
					CHANNELS 3 Zrotation Yrotation Xrotation
					JOINT Neck
					{
						OFFSET -0.00021 1.49948 0.16345
						CHANNELS 3 Zrotation Yrotation Xrotation
						JOINT Head
						{
							OFFSET 0.06080 1.50567 -0.26702
							CHANNELS 3 Zrotation Yrotation Xrotation
							End Site
							{
								OFFSET 0.01726 1.56470 -0.11854
							}
						}
					}
				}
				JOINT LeftCollar
				{
					OFFSET 0 0 0
					CHANNELS 3 Zrotation Yrotation Xrotation
					JOINT LeftShoulder
					{
						OFFSET 3.14993 0.82932 -0.22488
CHANNELS 3 Zrotation Xrotation Yrotation
						JOINT LeftElbow
						{
OFFSET 0 -5.682360 -0.000000
CHANNELS 3 Zrotation Xrotation Yrotation
							JOINT LeftWrist
							{
OFFSET 0 -3.171120 0.000000
CHANNELS 3 Zrotation Xrotation Yrotation
								JOINT lhand
								{
									OFFSET 0 0 0
CHANNELS 3 Zrotation Xrotation Yrotation
									JOINT LFingers
									{
OFFSET 0 -0.632690 0.000000
CHANNELS 3 Zrotation Xrotation Yrotation
										End Site
										{
OFFSET 0 -0.510090 0.000000
										}
									}
								}
								JOINT LThumb
								{
OFFSET 0 0.000000 0.000000
CHANNELS 3 Zrotation Xrotation Yrotation
									End Site
									{
OFFSET 0 -0.517880 0.517880
									}
								}
							}
						}
					}
				}
				JOINT RightCollar
				{
					OFFSET 0 0 0
					CHANNELS 3 Zrotation Yrotation Xrotation
					JOINT RightShoulder
					{
						OFFSET -3.10571 0.91279 -0.33334
CHANNELS 3 Zrotation Xrotation Yrotation
						JOINT RightElbow
						{
OFFSET 0 -5.871200 -0.000000
CHANNELS 3 Zrotation Xrotation Yrotation
							JOINT RightWrist
							{
OFFSET 0 -3.375890 0.000000
CHANNELS 3 Zrotation Xrotation Yrotation
								JOINT rhand
								{
									OFFSET 0 0 0
CHANNELS 3 Zrotation Xrotation Yrotation
									JOINT RFingers
									{
OFFSET 0 -0.603260 0.000000
CHANNELS 3 Zrotation Xrotation Yrotation
										End Site
										{
OFFSET 0 -0.486360 0.000000
										}
									}
								}
								JOINT RThumb
								{
OFFSET 0 0.000000 0.000000
CHANNELS 3 Zrotation Xrotation Yrotation
									End Site
									{
OFFSET 0 -0.493790 0.493790
									}
								}
							}
						}
					}
				}
			}
		}
	}
}
MOTION
Frames: 9
Frame Time: 0.008333333333333333
-12.957984 17.994197 0.809268 -1246.796828 -259.572205 -154.865342 0.000000 0.000000 0.000000 -21.387979 -5.688277 -24.213435 4.123990 12.323586 36.886363 2.640788 -0.444602 -30.674893 0.479641 -4.440815 -12.320237 0.000000 0.000000 0.000000 7.841065 18.177203 -30.012488 -4.700763 -13.038648 39.513255 0.408512 12.114907 -0.367488 -3.085073 -10.831542 31.713817 -2.622208 -5.721748 -11.465549 3.867727 -7.563959 1.250746 4.138851 -3.894356 8.647609 0.614376 7.730208 -15.022160 -6.008227 12.819512 24.858216 -0.431131 5.327693 10.973746 0.000000 0.000000 0.000000 54.706865 -57.822564 -8.509395 29.610481 -40.371847 11.221619 19.379134 14.090040 -34.297574 0.000000 0.000000 0.000000 -7.125000 0.000000 0.000000 -17.423406 65.047486 8.570962 0.000000 0.000000 0.000000 -3.441066 29.908621 29.396724 -129.793930 -53.078167 -93.661158 -11.419481 -93.173335 9.257891 0.000000 0.000000 0.000000 7.125000 0.000000 0.000000 13.420384 39.078925 2.000493
-13.067009 17.992956 0.763868 -1236.785342 -261.720993 -141.674259 0.000000 0.000000 0.000000 -21.434755 -8.124920 -27.967468 4.129310 12.330538 36.911527 2.295948 -2.246095 -28.083508 0.378102 -3.949115 -10.933536 0.000000 0.000000 0.000000 5.699212 17.787372 -34.047349 -4.882218 -13.249895 40.311330 0.286660 12.111846 -3.669029 -2.804875 -10.372371 30.191076 -2.105674 -9.335984 -11.684307 4.302644 -12.474304 0.456759 3.271063 -6.251330 8.398696 0.104739 10.020826 -16.703926 -7.573861 16.351675 22.814225 -0.314232 6.709451 10.800258 0.000000 0.000000 0.000000 85.388479 -56.920391 16.754854 14.017249 -22.738367 2.848125 15.130606 18.283995 -29.071349 0.000000 0.000000 0.000000 -7.125000 0.000000 0.000000 -17.888193 59.014492 6.258617 0.000000 0.000000 0.000000 -2.626379 30.546538 29.044066 -132.627971 -51.878033 -95.908936 -8.049387 -92.575099 5.367869 0.000000 0.000000 0.000000 7.125000 0.000000 0.000000 15.391706 35.048368 3.879339
-13.026906 18.054581 0.793930 -1246.620601 -261.277122 -150.130686 0.000000 0.000000 0.000000 -19.850662 -7.972835 -29.057132 4.078767 12.264515 36.674268 2.345391 -2.781319 -28.270927 0.382591 -3.972048 -10.998128 0.000000 0.000000 0.000000 6.652421 18.976398 -34.326841 -4.456091 -12.743764 38.416675 0.230178 11.205763 -3.732432 -2.814005 -10.387582 30.241377 -0.034824 -7.492529 -13.215365 3.721915 -10.260532 0.474832 1.852747 -5.047972 8.577398 -0.916204 8.899502 -16.212421 -5.971613 14.623245 23.158136 0.098664 6.032529 10.524707 0.000000 0.000000 0.000000 68.923226 -52.682035 5.683592 45.607406 -51.034448 22.718032 20.556972 6.206640 -32.837550 0.000000 0.000000 0.000000 -7.125000 0.000000 0.000000 -14.741454 63.974873 6.854795 0.000000 0.000000 0.000000 2.431419 32.696786 26.294542 -136.684261 -49.915883 -99.057860 -4.343496 -74.296036 -2.753344 0.000000 0.000000 0.000000 7.125000 0.000000 0.000000 16.869546 27.088882 7.647432
-12.991226 18.077025 0.835398 -1220.612137 -266.747907 -124.790322 0.000000 0.000000 0.000000 -18.809259 -11.621512 -27.295339 3.962601 12.110476 36.124029 2.132516 -2.402316 -26.995088 0.464118 -4.369768 -12.119385 0.000000 0.000000 0.000000 7.866559 16.262258 -32.433845 -4.368576 -12.635377 38.018457 0.077190 11.791766 -7.124389 -2.651137 -10.107721 29.326192 -1.169006 -5.861793 -12.513057 3.599486 -7.892827 0.433271 2.925733 -3.954950 8.144107 -3.089302 5.098774 -16.666146 -2.920570 9.218998 24.681270 0.780684 3.678117 10.721825 0.000000 0.000000 0.000000 35.399283 -46.643348 -18.723018 97.997041 -59.726257 66.918158 18.807567 -23.816858 -40.577095 0.000000 0.000000 0.000000 -7.125000 0.000000 0.000000 -26.107938 70.547313 16.281034 0.000000 0.000000 0.000000 -1.734169 29.451361 32.669074 -143.736898 -45.689914 -104.288364 -13.466316 -58.434878 -7.405700 0.000000 0.000000 0.000000 7.125000 0.000000 0.000000 9.720493 22.399471 5.358441
-13.018731 18.048680 0.903954 -1098.151085 -265.741588 -2.995147 0.000000 0.000000 0.000000 -16.992042 -13.346628 -27.527719 4.141488 12.346229 36.968335 1.793106 -3.942326 -24.372147 0.510920 -4.581751 -12.719407 0.000000 0.000000 0.000000 9.601726 14.873379 -30.688549 -4.379819 -12.649328 38.069584 -0.217457 12.559605 -11.452835 -2.713309 -10.215741 29.678297 -2.010827 -2.389870 -11.446936 1.889778 -3.025421 0.411119 2.601691 -1.581086 7.075552 -4.325063 -1.049467 -15.047718 2.534171 -0.661513 24.099144 1.563739 -0.275090 10.199358 0.000000 0.000000 0.000000 15.697202 -25.189951 -41.551528 127.783549 -53.847033 92.044702 3.196855 -65.724515 -45.849576 0.000000 0.000000 0.000000 -7.125000 0.000000 0.000000 -52.426687 69.196453 33.483694 0.000000 0.000000 0.000000 -13.415110 10.986852 40.032183 -148.974614 -41.755815 -107.913086 -13.909639 -10.865709 -12.333458 0.000000 0.000000 0.000000 7.125000 0.000000 0.000000 9.252267 17.384852 6.145144
-13.130010 18.003960 0.917544 -1088.723372 -268.212937 4.973912 0.000000 0.000000 0.000000 -16.489047 -11.813775 -27.353430 4.517896 12.819410 38.696180 2.085886 -2.921051 -26.571924 0.661621 -5.202110 -14.485891 0.000000 0.000000 0.000000 10.760661 15.363472 -30.285974 -4.432769 -12.715051 38.311052 -0.011431 11.476735 -8.214736 -2.922363 -10.568209 30.837161 -1.955623 3.204299 -11.195276 -0.693342 4.615207 1.892014 1.193326 2.168336 8.198696 -3.300176 -6.095035 -12.583128 5.759852 -8.767722 22.537463 1.499525 -3.581175 9.604500 0.000000 0.000000 0.000000 16.339288 1.777853 -47.921273 132.225027 -52.057715 95.591779 -8.872908 -88.278751 -44.171576 0.000000 0.000000 0.000000 -7.125000 0.000000 0.000000 -59.504838 64.487670 33.315486 0.000000 0.000000 0.000000 -36.893726 -30.237519 30.141147 -134.266080 -51.100517 -97.185208 -10.921831 10.755054 -11.787556 0.000000 0.000000 0.000000 7.125000 0.000000 0.000000 11.336210 18.113325 7.396606
-13.207571 17.961350 0.984570 -1074.504908 -273.656574 18.215687 0.000000 0.000000 0.000000 -17.510434 -7.201850 -27.609916 4.646816 12.974622 39.273671 2.231673 -2.085034 -27.713704 0.703266 -5.359917 -14.937950 0.000000 0.000000 0.000000 10.588228 16.987913 -30.584001 -4.579022 -12.893406 38.970783 0.187054 11.123182 -4.561301 -2.738562 -10.259312 29.820570 -2.192924 5.811021 -11.346343 -1.713701 8.236892 2.182969 0.923407 3.933045 8.619274 -3.753565 -6.443615 -10.576590 5.071466 -8.970034 24.297201 1.375961 -3.736879 9.845213 0.000000 0.000000 0.000000 16.046948 26.733435 -42.805258 126.203338 -54.415994 90.765006 -9.135648 -92.123401 -42.590790 0.000000 0.000000 0.000000 -7.125000 0.000000 0.000000 -57.132011 63.503310 30.332901 0.000000 0.000000 0.000000 -77.392454 -73.285426 -15.259270 -22.033111 -32.663406 -6.756954 -19.370247 45.259754 -22.908778 0.000000 0.000000 0.000000 7.125000 0.000000 0.000000 6.017845 5.956753 5.384480
-13.193682 18.009792 1.102312 -1236.179850 -274.733147 -142.780721 0.000000 0.000000 0.000000 -13.176493 -12.231019 -28.021791 4.717315 13.058170 39.586747 1.985903 -3.303722 -25.823923 0.590998 -4.921741 -13.685576 0.000000 0.000000 0.000000 14.087150 14.671444 -29.506096 -4.249866 -12.485658 37.472440 -0.120789 11.107653 -9.479042 -2.651007 -10.107352 29.325218 -2.969048 6.693603 -11.928515 -1.201030 9.505473 2.281190 2.176634 4.479400 8.822187 -1.961612 -9.803881 -10.677710 8.046540 -14.650400 22.969265 1.382290 -5.893110 9.809189 0.000000 0.000000 0.000000 18.393899 30.121819 -46.114265 126.026671 -54.477449 90.621396 -13.282473 -92.143315 -43.321910 0.000000 0.000000 0.000000 -7.125000 0.000000 0.000000 -61.752746 62.758491 32.711538 0.000000 0.000000 0.000000 -101.174439 -68.825510 -45.388264 -16.033485 -25.546597 -3.671360 -16.723877 37.489857 -26.308437 0.000000 0.000000 0.000000 7.125000 0.000000 0.000000 7.913962 2.899672 7.578184
-13.175407 18.049038 1.142483 -1254.519800 -281.765439 -161.724678 0.000000 0.000000 0.000000 -12.983055 -16.658252 -26.655435 4.497939 12.795079 38.606279 1.622581 -3.405449 -23.229189 0.925090 -6.127527 -17.154957 0.000000 0.000000 0.000000 14.286486 12.261177 -27.691161 -4.156566 -12.365867 37.038739 -0.609570 11.655150 -15.076445 -2.621137 -10.054851 29.154728 -4.002910 4.905715 -11.348774 -0.694779 7.199331 2.287690 2.795064 3.313894 8.392091 -2.712561 -10.016631 -9.874482 5.457144 -14.216426 24.571226 0.707032 -5.983669 10.036631 0.000000 0.000000 0.000000 18.127758 28.960305 -47.314692 125.611943 -54.618924 90.283564 -9.594645 -87.644869 -43.668217 0.000000 0.000000 0.000000 -7.125000 0.000000 0.000000 -59.262126 63.995788 32.503777 0.000000 0.000000 0.000000 -100.322284 -67.776009 -43.718390 -16.171873 -25.752856 -3.720522 -13.199814 31.641987 -23.972195 0.000000 0.000000 0.000000 7.125000 0.000000 0.000000 9.910464 5.739893 9.008626
